<?xml version="1.0" encoding="utf-8"?>
<!-- Generator: Adobe Illustrator 16.0.4, SVG Export Plug-In . SVG Version: 6.00 Build 0)  -->
<!DOCTYPE svg PUBLIC "-//W3C//DTD SVG 1.1//EN" "http://www.w3.org/Graphics/SVG/1.1/DTD/svg11.dtd">
<svg version="1.1"
	 id="Layer_1" sodipodi:docname="openstack-black.svg" inkscape:version="0.48.4 r9939" xmlns:dc="http://purl.org/dc/elements/1.1/" xmlns:cc="http://creativecommons.org/ns#" xmlns:rdf="http://www.w3.org/1999/02/22-rdf-syntax-ns#" xmlns:svg="http://www.w3.org/2000/svg" xmlns:sodipodi="http://sodipodi.sourceforge.net/DTD/sodipodi-0.dtd" xmlns:inkscape="http://www.inkscape.org/namespaces/inkscape"
	 xmlns="http://www.w3.org/2000/svg" xmlns:xlink="http://www.w3.org/1999/xlink" x="0px" y="0px" width="100px" height="100px"
	 viewBox="0 -20 100 100" enable-background="new 0 -20 100 100" xml:space="preserve">
<g>
	<path id="path3038" inkscape:connector-curvature="0" d="M4.522,67.311c-0.748-0.731-1.157-1.744-1.156-2.855l0.035-16.231
		l9.387,9.284l-0.029,17.95L4.522,67.311z"/>
	<polygon id="polygon3040" points="81.236,20.472 96.543,19.128 96.646,44.657 81.338,45.997 	"/>
	<polygon id="polygon3042" points="14.87,26.281 30.188,24.941 30.286,50.473 14.971,51.813 	"/>
	<polygon id="polygon3044" points="3.409,41.106 3.315,16.472 12.692,25.742 12.792,50.384 	"/>
	<path id="path3046" inkscape:connector-curvature="0" d="M18.894,79.873c-1.091,0-2.096-0.406-2.831-1.144
		c-0.732-0.737-1.135-1.748-1.131-2.844l0.029-17.833l15.32-1.344l-0.006,2.842c0,2.102,1.635,3.743,3.725,3.743l0,0
		c0.113,0,0.23-0.005,0.348-0.015l43.072-3.774c2.182-0.196,3.895-2.055,3.908-4.231l0.004-3.036l15.307-1.339l-0.029,17.641
		c-0.006,2.501-2.061,4.719-4.576,4.941l-72.745,6.375C19.155,79.868,19.024,79.873,18.894,79.873z"/>
	<path id="path3048" inkscape:connector-curvature="0" d="M15.006,2.842c0.005-2.5,2.056-4.713,4.572-4.937l72.748-6.338
		c0.117-0.01,0.242-0.015,0.363-0.015c1.105,0,2.117,0.409,2.857,1.148c0.734,0.737,1.141,1.75,1.139,2.854l-0.061,17.272
		l-15.299,1.328l0.002-2.283c0-2.099-1.635-3.743-3.723-3.743c-0.113,0-0.23,0.005-0.346,0.015l-43.079,3.743
		c-2.152,0.191-3.901,2.088-3.901,4.23l-0.002,2.475l-15.318,1.334L15.006,2.842L15.006,2.842z"/>
	<path id="path3050" inkscape:connector-curvature="0" d="M3.393,9.228L3.446-8.587c0.005-2.512,2.055-4.728,4.57-4.944l72.75-6.324
		c0.131-0.012,0.262-0.018,0.395-0.018c1.084,0,2.08,0.399,2.805,1.124c0,0,6.672,6.59,8.244,8.145
		c-0.021,0.001-72.82,6.344-72.82,6.344c-3.609,0.318-6.549,3.502-6.557,7.096l-0.044,15.681L3.393,9.228L3.393,9.228z"/>
	<polygon id="polygon3052" points="79.85,48.31 93.551,47.109 95.295,48.836 80.654,50.117 71.115,40.689 72.061,40.605 	"/>
	<path id="path3054" inkscape:connector-curvature="0" d="M72.832,10.71l4.615-0.402c0.053-0.005,0.105-0.007,0.158-0.007
		c0.896,0,1.549,0.659,1.549,1.567l-0.008,4.655l14.252-1.236l1.793,1.775l-14.641,1.286L72.832,10.71z"/>
	<polygon id="polygon3056" points="69.785,35.295 69.688,10.984 69.99,10.958 79.059,19.932 79.158,44.568 	"/>
	<polygon id="polygon3058" points="13.461,22.238 26.997,21.059 28.835,22.876 14.185,24.158 4.652,14.735 5.772,14.638 	"/>
	<polygon id="polygon3060" points="13.482,54.125 27.201,52.925 28.938,54.644 14.283,55.931 4.752,46.503 5.692,46.419 	"/>
	<path id="path3062" inkscape:connector-curvature="0" d="M34.008,61.12c-0.073,0-0.146-0.004-0.217-0.013l-0.133-0.036
		c-0.114-0.023-0.158-0.029-0.199-0.043l-0.105-0.054c-0.102-0.044-0.15-0.063-0.193-0.09l-0.088-0.071
		c-0.068-0.049-0.112-0.076-0.148-0.11c-0.308-0.295-0.477-0.702-0.477-1.15l0.012-4.485l-2.418-2.392l2.424-0.213l-0.005-1.47
		l33.401-2.925c2.146-0.186,3.896-2.084,3.904-4.232v-1.425l9.395,9.283l-0.006,3.57c-0.008,1.028-0.891,1.981-1.93,2.074
		l-43.066,3.773C34.108,61.118,34.058,61.12,34.008,61.12z"/>
</g>
</svg>
