<?xml version="1.0" encoding="utf-8"?>
<!-- Generator: Adobe Illustrator 16.0.4, SVG Export Plug-In . SVG Version: 6.00 Build 0)  -->
<!DOCTYPE svg PUBLIC "-//W3C//DTD SVG 1.1//EN" "http://www.w3.org/Graphics/SVG/1.1/DTD/svg11.dtd">
<svg version="1.1" id="Layer_1" xmlns="http://www.w3.org/2000/svg" xmlns:xlink="http://www.w3.org/1999/xlink" x="0px" y="0px"
	 width="100px" height="100px" viewBox="-282.625 482.5 100 100" enable-background="new -282.625 482.5 100 100"
	 xml:space="preserve">
<path d="M-232.5,485.549c6.988,0,13.633,1.471,19.643,4.119l-0.006,0.002c0.045-0.068,0.092-0.139,0.139-0.207
	c2.832-4.191,7.629-6.949,13.068-6.949c8.704,0,15.76,7.057,15.76,15.76c0,5.01-2.336,9.473-5.979,12.357l0.004-0.002
	c3.9,7.008,6.122,14.807,6.122,23.396c-0.001,26.926-21.827,48.479-48.751,48.479h-0.25c-26.924,0-48.75-21.553-48.75-48.477
	c0-8.59,2.221-16.525,6.122-23.535l0.004,0.072c-3.643-2.889-5.979-7.316-5.979-12.324c0-8.705,7.056-15.744,15.76-15.744
	c5.44,0,10.236,2.684,13.069,6.875c0.045,0.07,0.091,0.133,0.137,0.133h-0.005c6.009-3,12.654-4.037,19.642-4.037 M-215.874,527.504
	h-33.504c-4.322,4-6.998,10.109-6.998,16.689c0,13.117,10.634,23.678,23.75,23.678c13.117,0,23.751-10.525,23.751-23.643
	C-208.875,537.65-211.55,531.504-215.874,527.504z M-245.542,534.504c0,8,5.782,12.916,12.916,12.916
	c7.135,0,12.918-4.916,12.918-12.916H-245.542z"/>
</svg>
